<svg xmlns="http://www.w3.org/2000/svg" version="1.1" xmlns:xlink="http://www.w3.org/1999/xlink" xmlns:svgjs="http://svgjs.dev/svgjs" width="100%" height="100%" viewBox="0 0 1000 600"><rect width="1000" height="600" x="0" y="0" fill="#050505"/><g><rect width="333.3333333333333" height="333.3333333333333" y="389.16033229192055" fill="#616161" transform="matrix(0.3406568984693776,0,0,0.3406568984693776,0,110.65369811397898)" x="366.9382019042969"/><path d="M524.1259332897844 480.8270012611233Q552.0033770105051 480.8270012611233 567.2422399554545 492.4677993440707Q582.4811029004038 504.13883326619464 582.4811029004038 527.208778557854L582.4811029004038 527.208778557854Q582.4811029004038 551.7905158083378 566.5770514935717 563.7639081222264Q550.7032359259161 575.7373004361153 524.3375841640197 575.7373004361153L524.3375841640197 575.7373004361153L505.40994883953897 575.7373004361153L505.40994883953897 630.8269994156741L484.7286348428221 630.8269994156741L484.7286348428221 480.8270012611233L524.1259332897844 480.8270012611233ZM523.490980667078 559.4099472808125Q541.5417766554407 559.4099472808125 551.005594317681 552.4557042702204Q560.4996478190978 545.5014612596285 560.4996478190978 527.4204294320893L560.4996478190978 527.4204294320893Q560.4996478190978 511.304727151022 551.005594317681 504.13883326619464Q541.5417766554407 496.94270354219077 523.9142824155489 496.94270354219077L523.9142824155489 496.94270354219077L505.40994883953897 496.94270354219077L505.40994883953897 559.4099472808125L523.490980667078 559.4099472808125Z " fill="#050505" transform="matrix(0.3406568984693776,0,0,0.3406568984693776,0,110.65369811397898)"/><path d="M819.2319210276178 492.8302803612407Q844.4415452458691 492.8302803612407 858.2220773564967 503.35707572352567Q872.0026094671243 513.911213411427 872.0026094671243 534.7734078566826L872.0026094671243 534.7734078566826Q872.0026094671243 557.0027185827546 857.6205461929376 567.830279526819Q843.2658252443671 578.6578404708836 819.423317306932 578.6578404708836L819.423317306932 578.6578404708836L802.3070214711129 578.6578404708836L802.3070214711129 628.4755577438272L783.6048707495468 628.4755577438272L783.6048707495468 492.8302803612407L819.2319210276178 492.8302803612407ZM818.657732189675 563.8929846380684Q834.9811005826207 563.8929846380684 843.5392485005303 557.6042497463137Q852.1247387440562 551.3155148545591 852.1247387440562 534.9648041359969L852.1247387440562 534.9648041359969Q852.1247387440562 520.3913445824959 843.5392485005303 513.911213411427Q834.9811005826207 507.40373991474166 819.0405247483035 507.40373991474166L819.0405247483035 507.40373991474166L802.3070214711129 507.40373991474166L802.3070214711129 563.8929846380684L818.657732189675 563.8929846380684ZM966.8804793557707 604.2502572477634Q966.8804793557707 610.5663344651344 969.0405230794604 613.6013326085466Q971.2279091287663 616.6636730775748 975.5479965761456 618.2495279633216L975.5479965761456 618.2495279633216L971.4193054080806 630.8269977468311Q963.3533193512649 629.8426740246433 958.4317007403264 626.3155140201375Q953.510082129388 622.7610116900153 951.1312998007677 615.2965567967586L951.1312998007677 615.2965567967586Q940.713873740948 630.8269977468311 920.2344718543209 630.8269977468311L920.2344718543209 630.8269977468311Q904.8680848579465 630.8269977468311 896.0091713582573 622.1868228520724Q887.1502578585681 613.5193056316976 887.1502578585681 599.5473772417557L887.1502578585681 599.5473772417557Q887.1502578585681 583.0052702438793 899.0715118272857 574.14635674419Q910.9654234703869 565.287443244501 932.8392839634466 565.287443244501L932.8392839634466 565.287443244501L948.7798597977638 565.287443244501L948.7798597977638 557.6042497463137Q948.7798597977638 546.5852925229349 943.4481063025805 541.8550701913107Q938.1436951330136 537.1248478596865 927.1247379096347 537.1248478596865L927.1247379096347 537.1248478596865Q915.6956458020111 537.1248478596865 899.1535388041347 542.6479976341841L899.1535388041347 542.6479976341841L894.6420550774411 529.4416543614993Q913.9183946369499 522.3599920268712 930.4605016348263 522.3599920268712L930.4605016348263 522.3599920268712Q948.7798597977638 522.3599920268712 957.8301695767673 531.3282748290258Q966.8804793557707 540.2692153055639 966.8804793557707 556.8113223034402L966.8804793557707 556.8113223034402L966.8804793557707 604.2502572477634ZM924.363163022386 617.265204241134Q939.9209462980747 617.265204241134 948.7798597977638 601.1058898018862L948.7798597977638 601.1058898018862L948.7798597977638 577.2907241900674L935.1907239664505 577.2907241900674Q906.4539397436934 577.2907241900674 906.4539397436934 598.5630535195679L906.4539397436934 598.5630535195679Q906.4539397436934 607.8047595778856 910.9654234703869 612.5349819095098Q915.5042495226967 617.265204241134 924.363163022386 617.265204241134L924.363163022386 617.265204241134ZM1032.255979904403 522.3599920268712Q1042.8648022435368 522.3599920268712 1051.3409231845976 525.3129631934344Q1059.8170441256582 528.2659343599973 1067.472895298229 534.1718766931235L1067.472895298229 534.1718766931235L1059.8170441256582 545.6009688007472Q1052.7080394654138 541.0621427484373 1046.3099352711938 538.9020990247477Q1039.9118310769738 536.742055301058 1032.8301687423457 536.742055301058L1032.8301687423457 536.742055301058Q1023.9712552426565 536.742055301058 1018.8582403524039 540.3785846080292Q1013.7452254621512 544.0151139150004 1013.7452254621512 550.3311911323714L1013.7452254621512 550.3311911323714Q1013.7452254621512 556.619926024126 1018.5574747706243 560.1744283542482Q1023.3970664047138 563.7015883587541 1035.974536188223 567.064694409562L1035.974536188223 567.064694409562Q1053.3095706289728 571.3847818569412 1061.8677185468823 578.8765790758142Q1070.425866464792 586.341033969071 1070.425866464792 599.3286386368251L1070.425866464792 599.3286386368251Q1070.425866464792 614.6950256331995 1058.5319548216908 622.7610116900153Q1046.6107008529734 630.8269977468311 1029.4944050171541 630.8269977468311L1029.4944050171541 630.8269977468311Q1005.8706356846496 630.8269977468311 990.3128524089609 617.265204241134L990.3128524089609 617.265204241134L999.9646933515235 606.2189046921388Q1013.143694298592 616.2808805189463 1029.0842701329093 616.2808805189463L1029.0842701329093 616.2808805189463Q1039.337642239031 616.2808805189463 1045.325611549006 612.042820048416Q1051.3409231845976 607.8047595778856 1051.3409231845976 600.5317009639433L1051.3409231845976 600.5317009639433Q1051.3409231845976 595.1999474687601 1049.1808794609078 591.9462107204174Q1047.0208357372182 588.7198162976912 1041.6890822420348 586.2590069922219Q1036.3846710724679 583.7981976867526 1026.131298966346 581.0366227995039L1026.131298966346 581.0366227995039Q1009.6165342940861 576.6891930265083 1002.2341063776785 569.416134412566Q994.8516784612708 562.1430757986236 994.8516784612708 550.9053799703142L994.8516784612708 550.9053799703142Q994.8516784612708 542.8393939134984 999.663927769744 536.2498934399641Q1004.476177078217 529.66039296643 1013.061667321743 525.9965213338425Q1021.6198152396527 522.3599920268712 1032.255979904403 522.3599920268712L1032.255979904403 522.3599920268712ZM1124.1808786264862 522.3599920268712Q1134.8170432912366 522.3599920268712 1143.265821906681 525.3129631934344Q1151.7419428477415 528.2659343599973 1159.4251363459289 534.1718766931235L1159.4251363459289 534.1718766931235L1151.7419428477415 545.6009688007472Q1144.6602805131133 541.0621427484373 1138.2621763188936 538.9020990247477Q1131.8640721246734 536.742055301058 1124.7824097900454 536.742055301058L1124.7824097900454 536.742055301058Q1115.9234962903563 536.742055301058 1110.7831390744873 540.3785846080292Q1105.6701241842345 544.0151139150004 1105.6701241842345 550.3311911323714L1105.6701241842345 550.3311911323714Q1105.6701241842345 556.619926024126 1110.509715818324 560.1744283542482Q1115.321965126797 563.7015883587541 1127.9267772359228 567.064694409562L1127.9267772359228 567.064694409562Q1145.2344693510563 571.3847818569412 1153.819959594582 578.8765790758142Q1162.3781075124919 586.341033969071 1162.3781075124919 599.3286386368251L1162.3781075124919 599.3286386368251Q1162.3781075124919 614.6950256331995 1150.4568535437743 622.7610116900153Q1138.5629419006732 630.8269977468311 1121.4193037392374 630.8269977468311L1121.4193037392374 630.8269977468311Q1097.7955344067332 630.8269977468311 1082.2377511310442 617.265204241134L1082.2377511310442 617.265204241134L1091.889592073607 606.2189046921388Q1105.0959353462918 616.2808805189463 1121.036511180609 616.2808805189463L1121.036511180609 616.2808805189463Q1131.2625409611144 616.2808805189463 1137.2778525967058 612.042820048416Q1143.265821906681 607.8047595778856 1143.265821906681 600.5317009639433L1143.265821906681 600.5317009639433Q1143.265821906681 595.1999474687601 1141.1057781829911 591.9462107204174Q1138.9457344593015 588.7198162976912 1133.6413232897346 586.2590069922219Q1128.3095697945514 583.7981976867526 1118.0835400140459 581.0366227995039L1118.0835400140459 581.0366227995039Q1101.5414330161695 576.6891930265083 1094.159005099762 569.416134412566Q1086.7765771833542 562.1430757986236 1086.7765771833542 550.9053799703142L1086.7765771833542 550.9053799703142Q1086.7765771833542 542.8393939134984 1091.5888264918274 536.2498934399641Q1096.4284181259168 529.66039296643 1104.9865660438263 525.9965213338425Q1113.544713961736 522.3599920268712 1124.1808786264862 522.3599920268712L1124.1808786264862 522.3599920268712ZM1289.1644713953892 524.7387743554915L1306.4721635105225 524.7387743554915L1282.848394178018 628.4755577438272L1258.240301123326 628.4755577438272L1240.139681565319 541.0621427484373L1221.437530843753 628.4755577438272L1197.4036266270036 628.4755577438272L1173.2056684565564 524.7387743554915L1191.3062880145633 524.7387743554915L1210.0084387361294 615.8707456347014L1230.4878406227563 524.7387743554915L1250.7758462300694 524.7387743554915L1270.2435820688925 615.8707456347014L1289.1644713953892 524.7387743554915ZM1368.1017654497182 522.3599920268712Q1389.9482836171617 522.3599920268712 1402.0609338651934 536.9334515803723Q1414.1735841132254 551.5069111338732 1414.1735841132254 576.497796747194L1414.1735841132254 576.497796747194Q1414.1735841132254 592.6571111864419 1408.6504343387278 604.9611577137879Q1403.1272845642302 617.265204241134 1392.7098585044105 624.0461009939826Q1382.2650901189745 630.8269977468311 1367.910369170404 630.8269977468311L1367.910369170404 630.8269977468311Q1346.0365086773445 630.8269977468311 1333.8418314524636 616.2808805189463Q1321.6471542275826 601.7074209654453 1321.6471542275826 576.6891930265083L1321.6471542275826 576.6891930265083Q1321.6471542275826 560.5572209128768 1327.142961676464 548.2531743855307Q1332.6661114509616 535.9491278581845 1343.0835375107813 529.1682311053361Q1353.5283058962173 522.3599920268712 1368.1017654497182 522.3599920268712L1368.1017654497182 522.3599920268712ZM1368.1017654497182 536.9334515803723Q1341.1148900664057 536.9334515803723 1341.1148900664057 576.6891930265083L1341.1148900664057 576.6891930265083Q1341.1148900664057 616.2808805189463 1367.910369170404 616.2808805189463L1367.910369170404 616.2808805189463Q1394.6785059487856 616.2808805189463 1394.6785059487856 576.497796747194L1394.6785059487856 576.497796747194Q1394.6785059487856 536.9334515803723 1368.1017654497182 536.9334515803723L1368.1017654497182 536.9334515803723ZM1489.1735832788036 522.3599920268712Q1494.669390727685 522.3599920268712 1499.399613059309 523.5357120283732L1499.399613059309 523.5357120283732L1496.0638493341175 541.2535390277516Q1491.3336270024934 540.0778190262497 1487.013539555114 540.0778190262497L1487.013539555114 540.0778190262497Q1477.3616986125514 540.0778190262497 1471.4557562794253 547.1594813608776Q1465.5498139462993 554.268486021122 1462.1867078954913 569.2247381332517L1462.1867078954913 569.2247381332517L1462.1867078954913 628.4755577438272L1444.0860883374844 628.4755577438272L1444.0860883374844 524.7387743554915L1459.643871613173 524.7387743554915L1461.4211227782343 545.7923650800615Q1465.5498139462993 534.1718766931235 1472.6314762809272 528.2659343599973Q1479.7131386155554 522.3599920268712 1489.1735832788036 522.3599920268712L1489.1735832788036 522.3599920268712ZM1582.274202002389 480.82699941567415L1600.4021638860122 482.9870431393638L1600.4021638860122 628.4755577438272L1584.461588051695 628.4755577438272L1582.684336886634 614.0934944696404Q1577.5713219963811 621.9680842471419 1569.888128498194 626.3975409969864Q1562.2049350000066 630.8269977468311 1552.7444903367584 630.8269977468311L1552.7444903367584 630.8269977468311Q1534.2610782201232 630.8269977468311 1523.9256791371522 616.2808805189463Q1513.5902800541817 601.7074209654453 1513.5902800541817 577.0993279107532L1513.5902800541817 577.0993279107532Q1513.5902800541817 561.1587520764358 1518.51189866512 548.7453362466244Q1523.4335172760584 536.3319204168131 1532.6752233343764 529.3596273846504Q1541.9169293926939 522.3599920268712 1554.3303452225052 522.3599920268712L1554.3303452225052 522.3599920268712Q1570.2709210568225 522.3599920268712 1582.274202002389 535.1562004153111L1582.274202002389 535.1562004153111L1582.274202002389 480.82699941567415ZM1556.6817852255092 616.4722767982606Q1564.9665098872556 616.4722767982606 1570.8724522203815 612.6170088863588Q1576.778394553508 608.7890833000735 1582.274202002389 601.1058898018862L1582.274202002389 601.1058898018862L1582.274202002389 550.3311911323714Q1577.1611871121363 543.6323213563718 1571.3646140814753 540.1871883287149Q1565.5406987251986 536.742055301058 1558.267640111256 536.742055301058L1558.267640111256 536.742055301058Q1546.2643591656895 536.742055301058 1539.6748586921553 546.776688802249Q1533.0580158930047 556.8113223034402 1533.0580158930047 576.6891930265083L1533.0580158930047 576.6891930265083Q1533.0580158930047 596.7858023545069 1539.1826968310615 606.6290395763837Q1545.2800354435017 616.4722767982606 1556.6817852255092 616.4722767982606L1556.6817852255092 616.4722767982606ZM1740.9690598795373 490.47884035823677Q1753.765268267977 490.47884035823677 1763.1163436287602 494.11536966520794Q1772.4674189895431 497.7518989721791 1781.709125047861 505.4350924703663L1781.709125047861 505.4350924703663L1770.690167824482 516.86418457799Q1763.3897668849236 510.95824224486387 1756.7182394345402 508.38806363692936Q1750.0193696585407 505.81788502899485 1740.9690598795373 505.81788502899485L1740.9690598795373 505.81788502899485Q1730.5242914941011 505.81788502899485 1721.7747472968772 511.4504041059578Q1712.997860774037 517.0555808573042 1707.5020533251559 529.3596273846504Q1701.9789035506583 541.6636739119965 1701.9789035506583 560.5572209128768L1701.9789035506583 560.5572209128768Q1701.9789035506583 589.1026088563196 1711.3299789114412 602.281609803388Q1720.6810542722242 615.4879530760729 1739.0004124351617 615.4879530760729L1739.0004124351617 615.4879530760729Q1753.9566645472912 615.4879530760729 1764.784225491356 609.3906144636325L1764.784225491356 609.3906144636325L1764.784225491356 568.4318106903783L1740.7503212746064 568.4318106903783L1738.5902775509169 553.2841622989345L1783.2949799336077 553.2841622989345L1783.2949799336077 618.8237168012646Q1762.2140468834214 630.8269977468311 1739.0004124351617 630.8269977468311L1739.0004124351617 630.8269977468311Q1712.2049333311638 630.8269977468311 1697.1666542421851 612.9177744681384Q1682.1010328275902 595.0085511894457 1682.1010328275902 560.5572209128768L1682.1010328275902 560.5572209128768Q1682.1010328275902 538.5193064661191 1690.057649581941 522.6607576086508Q1698.0416086619075 506.80220875118255 1711.5213751907554 498.65419571751784Q1725.0011417196035 490.47884035823677 1740.9690598795373 490.47884035823677L1740.9690598795373 490.47884035823677ZM1892.554913096441 573.5448255806309Q1892.554913096441 578.0836516329408 1892.144778212196 582.813873964565L1892.144778212196 582.813873964565L1826.0036925463069 582.813873964565Q1827.1794125478086 599.9301698003842 1834.6712097666818 607.9961558572Q1842.1356646599384 616.0621419140158 1853.9475493261907 616.0621419140158L1853.9475493261907 616.0621419140158Q1861.4393465450635 616.0621419140158 1867.7280814368182 613.902098190326Q1874.0441586541892 611.7420544666364 1880.9344247095028 607.0118321350122L1880.9344247095028 607.0118321350122L1888.8090144870043 617.8393930790768Q1872.2669074891282 630.8269977468311 1852.5804330453743 630.8269977468311L1852.5804330453743 630.8269977468311Q1830.9253111572452 630.8269977468311 1818.8126609092133 616.6636730775748Q1806.7000106611813 602.5003484083187 1806.7000106611813 577.673516748696L1806.7000106611813 577.673516748696Q1806.7000106611813 561.5415446350644 1811.9223948538997 549.0461018284041Q1817.1447790466177 536.5506590217437 1826.878646966029 529.4416543614993Q1836.639857211057 522.3599920268712 1849.8188581581253 522.3599920268712L1849.8188581581253 522.3599920268712Q1870.4896563240668 522.3599920268712 1881.5086135474457 535.9491278581845Q1892.554913096441 549.5382636894979 1892.554913096441 573.5448255806309L1892.554913096441 573.5448255806309ZM1874.6183474921322 569.416134412566L1874.6183474921322 568.240414411064Q1874.6183474921322 552.8740274146895 1868.5210088796916 544.8080413578738Q1862.423670267251 536.742055301058 1850.2289930423703 536.742055301058L1850.2289930423703 536.742055301058Q1827.972339990682 536.742055301058 1826.0036925463069 569.416134412566L1826.0036925463069 569.416134412566L1874.6183474921322 569.416134412566ZM1970.3164871492681 522.3599920268712Q1984.479811818524 522.3599920268712 1992.463770898491 530.836112967932Q2000.4203876528418 539.2848915833763 2000.4203876528418 554.0497474161915L2000.4203876528418 554.0497474161915L2000.4203876528418 628.4755577438272L1982.3197680948347 628.4755577438272L1982.3197680948347 556.619926024126Q1982.3197680948347 545.6009688007472 1978.1910769267697 541.0621427484373Q1974.035043433088 536.5506590217437 1965.9690573762723 536.5506590217437L1965.9690573762723 536.5506590217437Q1957.7116750401424 536.5506590217437 1951.3955978227714 541.2535390277516Q1945.106862931017 545.9837613593756 1939.5837131565195 554.8426748590649L1939.5837131565195 554.8426748590649L1939.5837131565195 628.4755577438272L1921.4830935985124 628.4755577438272L1921.4830935985124 524.7387743554915L1937.0408768742009 524.7387743554915L1938.5993894343314 540.0778190262497Q1944.122539208829 531.8204366901195 1952.2978945681102 527.0902143584954Q1960.4732499273914 522.3599920268712 1970.3164871492681 522.3599920268712L1970.3164871492681 522.3599920268712ZM2115.2034705901724 573.5448255806309Q2115.2034705901724 578.0836516329408 2114.7933357059273 582.813873964565L2114.7933357059273 582.813873964565L2048.6522500400383 582.813873964565Q2049.82797004154 599.9301698003842 2057.3197672604133 607.9961558572Q2064.811564479286 616.0621419140158 2076.6234491455384 616.0621419140158L2076.6234491455384 616.0621419140158Q2084.087904038795 616.0621419140158 2090.403981256166 613.902098190326Q2096.6927161479207 611.7420544666364 2103.582982203234 607.0118321350122L2103.582982203234 607.0118321350122L2111.457571980736 617.8393930790768Q2094.9154649828592 630.8269977468311 2075.228990539106 630.8269977468311L2075.228990539106 630.8269977468311Q2053.5738686509767 630.8269977468311 2041.4612184029447 616.6636730775748Q2029.3759104805295 602.5003484083187 2029.3759104805295 577.673516748696L2029.3759104805295 577.673516748696Q2029.3759104805295 561.5415446350644 2034.5709523476312 549.0461018284041Q2039.7933365403487 536.5506590217437 2049.5545467853767 529.4416543614993Q2059.2884147047885 522.3599920268712 2072.4674156518568 522.3599920268712L2072.4674156518568 522.3599920268712Q2093.1382138177983 522.3599920268712 2104.1845133667935 535.9491278581845Q2115.2034705901724 549.5382636894979 2115.2034705901724 573.5448255806309L2115.2034705901724 573.5448255806309ZM2097.29424731148 569.416134412566L2097.29424731148 568.240414411064Q2097.29424731148 552.8740274146895 2091.169566373423 544.8080413578738Q2085.0722277609825 536.742055301058 2072.877550536102 536.742055301058L2072.877550536102 536.742055301058Q2050.6208974844135 536.742055301058 2048.6522500400383 569.416134412566L2048.6522500400383 569.416134412566L2097.29424731148 569.416134412566ZM2189.219146033563 522.3599920268712Q2194.7422958080606 522.3599920268712 2199.4451758140685 523.5357120283732L2199.4451758140685 523.5357120283732L2196.1094120888765 541.2535390277516Q2191.379189757253 540.0778190262497 2187.059102309873 540.0778190262497L2187.059102309873 540.0778190262497Q2177.407261367311 540.0778190262497 2171.5013190341847 547.1594813608776Q2165.5953767010587 554.268486021122 2162.259612975867 569.2247381332517L2162.259612975867 569.2247381332517L2162.259612975867 628.4755577438272L2144.131651092244 628.4755577438272L2144.131651092244 524.7387743554915L2159.689434367933 524.7387743554915L2161.4666855329933 545.7923650800615Q2165.5953767010587 534.1718766931235 2172.6770390356864 528.2659343599973Q2179.758701370315 522.3599920268712 2189.219146033563 522.3599920268712L2189.219146033563 522.3599920268712ZM2290.0029582553357 604.2502572477634Q2290.0029582553357 610.5663344651344 2292.1903443046417 613.6013326085466Q2294.350388028331 616.6636730775748 2298.67047547571 618.2495279633216L2298.67047547571 618.2495279633216L2294.5417843076457 630.8269977468311Q2286.47579825083 629.8426740246433 2281.554179639891 626.3155140201375Q2276.6325610289528 622.7610116900153 2274.2537787003325 615.2965567967586L2274.2537787003325 615.2965567967586Q2263.8363526405133 630.8269977468311 2243.356950753886 630.8269977468311L2243.356950753886 630.8269977468311Q2227.9905637575116 630.8269977468311 2219.131650257822 622.1868228520724Q2210.272736758133 613.5193056316976 2210.272736758133 599.5473772417557L2210.272736758133 599.5473772417557Q2210.272736758133 583.0052702438793 2222.1939907268506 574.14635674419Q2234.1152446955684 565.287443244501 2255.9617628630117 565.287443244501L2255.9617628630117 565.287443244501L2271.9023386973286 565.287443244501L2271.9023386973286 557.6042497463137Q2271.9023386973286 546.5852925229349 2266.597927527762 541.8550701913107Q2261.2661740325784 537.1248478596865 2250.2472168092 537.1248478596865L2250.2472168092 537.1248478596865Q2238.818124701576 537.1248478596865 2222.3033600293156 542.6479976341841L2222.3033600293156 542.6479976341841L2217.764533977006 529.4416543614993Q2237.068215862131 522.3599920268712 2253.5829805343915 522.3599920268712L2253.5829805343915 522.3599920268712Q2271.9023386973286 522.3599920268712 2280.9526484763323 531.3282748290258Q2290.0029582553357 540.2692153055639 2290.0029582553357 556.8113223034402L2290.0029582553357 556.8113223034402L2290.0029582553357 604.2502572477634ZM2247.485641921951 617.265204241134Q2263.0434251976394 617.265204241134 2271.9023386973286 601.1058898018862L2271.9023386973286 601.1058898018862L2271.9023386973286 577.2907241900674L2258.313202866015 577.2907241900674Q2229.576418643258 577.2907241900674 2229.576418643258 598.5630535195679L2229.576418643258 598.5630535195679Q2229.576418643258 607.8047595778856 2234.1152446955684 612.5349819095098Q2238.6267284222617 617.265204241134 2247.485641921951 617.265204241134L2247.485641921951 617.265204241134ZM2372.6861509191012 611.7420544666364L2379.5764169744148 623.745335412203Q2369.3503871939097 630.8269977468311 2356.362782526155 630.8269977468311L2356.362782526155 630.8269977468311Q2343.156439253471 630.8269977468311 2335.7740113370633 623.2531735511092Q2328.3915834206555 615.6793493553872 2328.3915834206555 601.2972860812005L2328.3915834206555 601.2972860812005L2328.3915834206555 538.7107027454333L2310.2909638626484 538.7107027454333L2310.2909638626484 524.7387743554915L2328.3915834206555 524.7387743554915L2328.3915834206555 501.3064013023013L2346.5195453042784 499.1463575786116L2346.5195453042784 524.7387743554915L2371.1276383589707 524.7387743554915L2369.1589909145955 538.7107027454333L2346.5195453042784 538.7107027454333L2346.5195453042784 600.5317009639433Q2346.5195453042784 608.597687020759 2349.3631471683766 612.2342163277302Q2352.2340913580906 615.8707456347014 2358.9056188084737 615.8707456347014L2358.9056188084737 615.8707456347014Q2365.0302997465305 615.8707456347014 2372.6861509191012 611.7420544666364L2372.6861509191012 611.7420544666364ZM2437.26872402486 522.3599920268712Q2459.1152421923034 522.3599920268712 2471.227892440335 536.9334515803723Q2483.340542688367 551.5069111338732 2483.340542688367 576.497796747194L2483.340542688367 576.497796747194Q2483.340542688367 592.6571111864419 2477.8173929138693 604.9611577137879Q2472.3215854649884 617.265204241134 2461.8768170795524 624.0461009939826Q2451.432048694116 630.8269977468311 2437.0773277455455 630.8269977468311L2437.0773277455455 630.8269977468311Q2415.2308095781027 630.8269977468311 2403.0087900276053 616.2808805189463Q2390.814112802724 601.7074209654453 2390.814112802724 576.6891930265083L2390.814112802724 576.6891930265083Q2390.814112802724 560.5572209128768 2396.309920251606 548.2531743855307Q2401.8330700261035 535.9491278581845 2412.2778384115395 529.1682311053361Q2422.6952644713588 522.3599920268712 2437.26872402486 522.3599920268712L2437.26872402486 522.3599920268712ZM2437.26872402486 536.9334515803723Q2410.309190967164 536.9334515803723 2410.309190967164 576.6891930265083L2410.309190967164 576.6891930265083Q2410.309190967164 616.2808805189463 2437.0773277455455 616.2808805189463L2437.0773277455455 616.2808805189463Q2463.8454645239276 616.2808805189463 2463.8454645239276 576.497796747194L2463.8454645239276 576.497796747194Q2463.8454645239276 536.9334515803723 2437.26872402486 536.9334515803723L2437.26872402486 536.9334515803723ZM2558.3405418539455 522.3599920268712Q2563.8636916284427 522.3599920268712 2568.5665716344506 523.5357120283732L2568.5665716344506 523.5357120283732L2565.230807909259 541.2535390277516Q2560.5005855776353 540.0778190262497 2556.1804981302557 540.0778190262497L2556.1804981302557 540.0778190262497Q2546.528657187693 540.0778190262497 2540.6227148545668 547.1594813608776Q2534.716772521441 554.268486021122 2531.3810087962493 569.2247381332517L2531.3810087962493 569.2247381332517L2531.3810087962493 628.4755577438272L2513.253046912626 628.4755577438272L2513.253046912626 524.7387743554915L2528.810830188315 524.7387743554915L2530.588081353376 545.7923650800615Q2534.716772521441 534.1718766931235 2541.798434856069 528.2659343599973Q2548.8800971906976 522.3599920268712 2558.3405418539455 522.3599920268712L2558.3405418539455 522.3599920268712Z " fill="#616161" transform="matrix(0.3406568984693776,0,0,0.3406568984693776,0,110.65369811397898)"/></g></svg>